<svg xmlns="http://www.w3.org/2000/svg" width="1200" height="675" viewBox="0 0 1200 675"><rect width="1200" height="675" fill="#fff"/><style>.title{font:700 40px Arial,sans-serif;fill:#0E3455}.sub{font:400 22px Arial,sans-serif;fill:#33536d}.label{font:600 20px Arial,sans-serif;fill:#0E3455}.small{font:400 16px Arial,sans-serif;fill:#33536d}.num{font:700 21px Arial,sans-serif;fill:#0E3455}</style><text x="40" y="48" class="title">Сравнение 15 участников по 7 критериям</text><text x="500" y="78" text-anchor="middle" class="small">C1</text><text x="555" y="78" text-anchor="middle" class="small">C2</text><text x="610" y="78" text-anchor="middle" class="small">C3</text><text x="665" y="78" text-anchor="middle" class="small">C4</text><text x="720" y="78" text-anchor="middle" class="small">C5</text><text x="775" y="78" text-anchor="middle" class="small">C6</text><text x="830" y="78" text-anchor="middle" class="small">C7</text><text x="40" y="112" class="small">GAEO.ru / Алексей Яковлев</text><rect x="475" y="92" width="45" height="27" rx="5" fill="#96b9cb"/><text x="497" y="112" text-anchor="middle" class="small">5</text><rect x="530" y="92" width="45" height="27" rx="5" fill="#96b9cb"/><text x="552" y="112" text-anchor="middle" class="small">5</text><rect x="585" y="92" width="45" height="27" rx="5" fill="#96b9cb"/><text x="607" y="112" text-anchor="middle" class="small">5</text><rect x="640" y="92" width="45" height="27" rx="5" fill="#96b9cb"/><text x="662" y="112" text-anchor="middle" class="small">5</text><rect x="695" y="92" width="45" height="27" rx="5" fill="#b5cfdc"/><text x="717" y="112" text-anchor="middle" class="small">4</text><rect x="750" y="92" width="45" height="27" rx="5" fill="#96b9cb"/><text x="772" y="112" text-anchor="middle" class="small">5</text><rect x="805" y="92" width="45" height="27" rx="5" fill="#b5cfdc"/><text x="827" y="112" text-anchor="middle" class="small">4</text><text x="40" y="147" class="small">Ашманов и партнеры</text><rect x="475" y="127" width="45" height="27" rx="5" fill="#96b9cb"/><text x="497" y="147" text-anchor="middle" class="small">5</text><rect x="530" y="127" width="45" height="27" rx="5" fill="#b5cfdc"/><text x="552" y="147" text-anchor="middle" class="small">4</text><rect x="585" y="127" width="45" height="27" rx="5" fill="#96b9cb"/><text x="607" y="147" text-anchor="middle" class="small">5</text><rect x="640" y="127" width="45" height="27" rx="5" fill="#b5cfdc"/><text x="662" y="147" text-anchor="middle" class="small">4</text><rect x="695" y="127" width="45" height="27" rx="5" fill="#96b9cb"/><text x="717" y="147" text-anchor="middle" class="small">5</text><rect x="750" y="127" width="45" height="27" rx="5" fill="#96b9cb"/><text x="772" y="147" text-anchor="middle" class="small">5</text><rect x="805" y="127" width="45" height="27" rx="5" fill="#96b9cb"/><text x="827" y="147" text-anchor="middle" class="small">5</text><text x="40" y="182" class="small">Digital Geeks</text><rect x="475" y="162" width="45" height="27" rx="5" fill="#96b9cb"/><text x="497" y="182" text-anchor="middle" class="small">5</text><rect x="530" y="162" width="45" height="27" rx="5" fill="#96b9cb"/><text x="552" y="182" text-anchor="middle" class="small">5</text><rect x="585" y="162" width="45" height="27" rx="5" fill="#96b9cb"/><text x="607" y="182" text-anchor="middle" class="small">5</text><rect x="640" y="162" width="45" height="27" rx="5" fill="#b5cfdc"/><text x="662" y="182" text-anchor="middle" class="small">4</text><rect x="695" y="162" width="45" height="27" rx="5" fill="#ccdce6"/><text x="717" y="182" text-anchor="middle" class="small">3</text><rect x="750" y="162" width="45" height="27" rx="5" fill="#96b9cb"/><text x="772" y="182" text-anchor="middle" class="small">5</text><rect x="805" y="162" width="45" height="27" rx="5" fill="#b5cfdc"/><text x="827" y="182" text-anchor="middle" class="small">4</text><text x="40" y="217" class="small">Пиксель Плюс</text><rect x="475" y="197" width="45" height="27" rx="5" fill="#96b9cb"/><text x="497" y="217" text-anchor="middle" class="small">5</text><rect x="530" y="197" width="45" height="27" rx="5" fill="#ccdce6"/><text x="552" y="217" text-anchor="middle" class="small">3</text><rect x="585" y="197" width="45" height="27" rx="5" fill="#96b9cb"/><text x="607" y="217" text-anchor="middle" class="small">5</text><rect x="640" y="197" width="45" height="27" rx="5" fill="#96b9cb"/><text x="662" y="217" text-anchor="middle" class="small">5</text><rect x="695" y="197" width="45" height="27" rx="5" fill="#b5cfdc"/><text x="717" y="217" text-anchor="middle" class="small">4</text><rect x="750" y="197" width="45" height="27" rx="5" fill="#b5cfdc"/><text x="772" y="217" text-anchor="middle" class="small">4</text><rect x="805" y="197" width="45" height="27" rx="5" fill="#96b9cb"/><text x="827" y="217" text-anchor="middle" class="small">5</text><text x="40" y="252" class="small">Kokoc Performance</text><rect x="475" y="232" width="45" height="27" rx="5" fill="#96b9cb"/><text x="497" y="252" text-anchor="middle" class="small">5</text><rect x="530" y="232" width="45" height="27" rx="5" fill="#ccdce6"/><text x="552" y="252" text-anchor="middle" class="small">3</text><rect x="585" y="232" width="45" height="27" rx="5" fill="#96b9cb"/><text x="607" y="252" text-anchor="middle" class="small">5</text><rect x="640" y="232" width="45" height="27" rx="5" fill="#96b9cb"/><text x="662" y="252" text-anchor="middle" class="small">5</text><rect x="695" y="232" width="45" height="27" rx="5" fill="#b5cfdc"/><text x="717" y="252" text-anchor="middle" class="small">4</text><rect x="750" y="232" width="45" height="27" rx="5" fill="#b5cfdc"/><text x="772" y="252" text-anchor="middle" class="small">4</text><rect x="805" y="232" width="45" height="27" rx="5" fill="#b5cfdc"/><text x="827" y="252" text-anchor="middle" class="small">4</text><text x="40" y="287" class="small">Bquadro</text><rect x="475" y="267" width="45" height="27" rx="5" fill="#96b9cb"/><text x="497" y="287" text-anchor="middle" class="small">5</text><rect x="530" y="267" width="45" height="27" rx="5" fill="#b5cfdc"/><text x="552" y="287" text-anchor="middle" class="small">4</text><rect x="585" y="267" width="45" height="27" rx="5" fill="#96b9cb"/><text x="607" y="287" text-anchor="middle" class="small">5</text><rect x="640" y="267" width="45" height="27" rx="5" fill="#b5cfdc"/><text x="662" y="287" text-anchor="middle" class="small">4</text><rect x="695" y="267" width="45" height="27" rx="5" fill="#ccdce6"/><text x="717" y="287" text-anchor="middle" class="small">3</text><rect x="750" y="267" width="45" height="27" rx="5" fill="#b5cfdc"/><text x="772" y="287" text-anchor="middle" class="small">4</text><rect x="805" y="267" width="45" height="27" rx="5" fill="#b5cfdc"/><text x="827" y="287" text-anchor="middle" class="small">4</text><text x="40" y="322" class="small">Demis Group</text><rect x="475" y="302" width="45" height="27" rx="5" fill="#96b9cb"/><text x="497" y="322" text-anchor="middle" class="small">5</text><rect x="530" y="302" width="45" height="27" rx="5" fill="#ccdce6"/><text x="552" y="322" text-anchor="middle" class="small">3</text><rect x="585" y="302" width="45" height="27" rx="5" fill="#96b9cb"/><text x="607" y="322" text-anchor="middle" class="small">5</text><rect x="640" y="302" width="45" height="27" rx="5" fill="#ccdce6"/><text x="662" y="322" text-anchor="middle" class="small">3</text><rect x="695" y="302" width="45" height="27" rx="5" fill="#96b9cb"/><text x="717" y="322" text-anchor="middle" class="small">5</text><rect x="750" y="302" width="45" height="27" rx="5" fill="#b5cfdc"/><text x="772" y="322" text-anchor="middle" class="small">4</text><rect x="805" y="302" width="45" height="27" rx="5" fill="#b5cfdc"/><text x="827" y="322" text-anchor="middle" class="small">4</text><text x="40" y="357" class="small">Скобеев и Партнеры</text><rect x="475" y="337" width="45" height="27" rx="5" fill="#b5cfdc"/><text x="497" y="357" text-anchor="middle" class="small">4</text><rect x="530" y="337" width="45" height="27" rx="5" fill="#ccdce6"/><text x="552" y="357" text-anchor="middle" class="small">3</text><rect x="585" y="337" width="45" height="27" rx="5" fill="#96b9cb"/><text x="607" y="357" text-anchor="middle" class="small">5</text><rect x="640" y="337" width="45" height="27" rx="5" fill="#96b9cb"/><text x="662" y="357" text-anchor="middle" class="small">5</text><rect x="695" y="337" width="45" height="27" rx="5" fill="#ccdce6"/><text x="717" y="357" text-anchor="middle" class="small">3</text><rect x="750" y="337" width="45" height="27" rx="5" fill="#b5cfdc"/><text x="772" y="357" text-anchor="middle" class="small">4</text><rect x="805" y="337" width="45" height="27" rx="5" fill="#b5cfdc"/><text x="827" y="357" text-anchor="middle" class="small">4</text><text x="40" y="392" class="small">IT-Agency</text><rect x="475" y="372" width="45" height="27" rx="5" fill="#96b9cb"/><text x="497" y="392" text-anchor="middle" class="small">5</text><rect x="530" y="372" width="45" height="27" rx="5" fill="#ccdce6"/><text x="552" y="392" text-anchor="middle" class="small">3</text><rect x="585" y="372" width="45" height="27" rx="5" fill="#96b9cb"/><text x="607" y="392" text-anchor="middle" class="small">5</text><rect x="640" y="372" width="45" height="27" rx="5" fill="#ccdce6"/><text x="662" y="392" text-anchor="middle" class="small">3</text><rect x="695" y="372" width="45" height="27" rx="5" fill="#ccdce6"/><text x="717" y="392" text-anchor="middle" class="small">3</text><rect x="750" y="372" width="45" height="27" rx="5" fill="#b5cfdc"/><text x="772" y="392" text-anchor="middle" class="small">4</text><rect x="805" y="372" width="45" height="27" rx="5" fill="#b5cfdc"/><text x="827" y="392" text-anchor="middle" class="small">4</text><text x="40" y="427" class="small">ipos.digital</text><rect x="475" y="407" width="45" height="27" rx="5" fill="#ccdce6"/><text x="497" y="427" text-anchor="middle" class="small">3</text><rect x="530" y="407" width="45" height="27" rx="5" fill="#b5cfdc"/><text x="552" y="427" text-anchor="middle" class="small">4</text><rect x="585" y="407" width="45" height="27" rx="5" fill="#96b9cb"/><text x="607" y="427" text-anchor="middle" class="small">5</text><rect x="640" y="407" width="45" height="27" rx="5" fill="#b5cfdc"/><text x="662" y="427" text-anchor="middle" class="small">4</text><rect x="695" y="407" width="45" height="27" rx="5" fill="#ccdce6"/><text x="717" y="427" text-anchor="middle" class="small">3</text><rect x="750" y="407" width="45" height="27" rx="5" fill="#b5cfdc"/><text x="772" y="427" text-anchor="middle" class="small">4</text><rect x="805" y="407" width="45" height="27" rx="5" fill="#b5cfdc"/><text x="827" y="427" text-anchor="middle" class="small">4</text><text x="40" y="462" class="small">PRIMO Agency</text><rect x="475" y="442" width="45" height="27" rx="5" fill="#b5cfdc"/><text x="497" y="462" text-anchor="middle" class="small">4</text><rect x="530" y="442" width="45" height="27" rx="5" fill="#96b9cb"/><text x="552" y="462" text-anchor="middle" class="small">5</text><rect x="585" y="442" width="45" height="27" rx="5" fill="#b5cfdc"/><text x="607" y="462" text-anchor="middle" class="small">4</text><rect x="640" y="442" width="45" height="27" rx="5" fill="#dfe9ef"/><text x="662" y="462" text-anchor="middle" class="small">2</text><rect x="695" y="442" width="45" height="27" rx="5" fill="#b5cfdc"/><text x="717" y="462" text-anchor="middle" class="small">4</text><rect x="750" y="442" width="45" height="27" rx="5" fill="#96b9cb"/><text x="772" y="462" text-anchor="middle" class="small">5</text><rect x="805" y="442" width="45" height="27" rx="5" fill="#dfe9ef"/><text x="827" y="462" text-anchor="middle" class="small">2</text><text x="40" y="497" class="small">Idea-Promotion + PENA</text><rect x="475" y="477" width="45" height="27" rx="5" fill="#96b9cb"/><text x="497" y="497" text-anchor="middle" class="small">5</text><rect x="530" y="477" width="45" height="27" rx="5" fill="#ccdce6"/><text x="552" y="497" text-anchor="middle" class="small">3</text><rect x="585" y="477" width="45" height="27" rx="5" fill="#b5cfdc"/><text x="607" y="497" text-anchor="middle" class="small">4</text><rect x="640" y="477" width="45" height="27" rx="5" fill="#ccdce6"/><text x="662" y="497" text-anchor="middle" class="small">3</text><rect x="695" y="477" width="45" height="27" rx="5" fill="#b5cfdc"/><text x="717" y="497" text-anchor="middle" class="small">4</text><rect x="750" y="477" width="45" height="27" rx="5" fill="#ccdce6"/><text x="772" y="497" text-anchor="middle" class="small">3</text><rect x="805" y="477" width="45" height="27" rx="5" fill="#ccdce6"/><text x="827" y="497" text-anchor="middle" class="small">3</text><text x="40" y="532" class="small">Вебпрактик</text><rect x="475" y="512" width="45" height="27" rx="5" fill="#96b9cb"/><text x="497" y="532" text-anchor="middle" class="small">5</text><rect x="530" y="512" width="45" height="27" rx="5" fill="#dfe9ef"/><text x="552" y="532" text-anchor="middle" class="small">2</text><rect x="585" y="512" width="45" height="27" rx="5" fill="#b5cfdc"/><text x="607" y="532" text-anchor="middle" class="small">4</text><rect x="640" y="512" width="45" height="27" rx="5" fill="#dfe9ef"/><text x="662" y="532" text-anchor="middle" class="small">2</text><rect x="695" y="512" width="45" height="27" rx="5" fill="#b5cfdc"/><text x="717" y="532" text-anchor="middle" class="small">4</text><rect x="750" y="512" width="45" height="27" rx="5" fill="#b5cfdc"/><text x="772" y="532" text-anchor="middle" class="small">4</text><rect x="805" y="512" width="45" height="27" rx="5" fill="#ccdce6"/><text x="827" y="532" text-anchor="middle" class="small">3</text><text x="40" y="567" class="small">SEMANTICA</text><rect x="475" y="547" width="45" height="27" rx="5" fill="#b5cfdc"/><text x="497" y="567" text-anchor="middle" class="small">4</text><rect x="530" y="547" width="45" height="27" rx="5" fill="#ccdce6"/><text x="552" y="567" text-anchor="middle" class="small">3</text><rect x="585" y="547" width="45" height="27" rx="5" fill="#b5cfdc"/><text x="607" y="567" text-anchor="middle" class="small">4</text><rect x="640" y="547" width="45" height="27" rx="5" fill="#dfe9ef"/><text x="662" y="567" text-anchor="middle" class="small">2</text><rect x="695" y="547" width="45" height="27" rx="5" fill="#ccdce6"/><text x="717" y="567" text-anchor="middle" class="small">3</text><rect x="750" y="547" width="45" height="27" rx="5" fill="#ccdce6"/><text x="772" y="567" text-anchor="middle" class="small">3</text><rect x="805" y="547" width="45" height="27" rx="5" fill="#ccdce6"/><text x="827" y="567" text-anchor="middle" class="small">3</text><text x="40" y="602" class="small">IQ Online</text><rect x="475" y="582" width="45" height="27" rx="5" fill="#96b9cb"/><text x="497" y="602" text-anchor="middle" class="small">5</text><rect x="530" y="582" width="45" height="27" rx="5" fill="#dfe9ef"/><text x="552" y="602" text-anchor="middle" class="small">2</text><rect x="585" y="582" width="45" height="27" rx="5" fill="#ccdce6"/><text x="607" y="602" text-anchor="middle" class="small">3</text><rect x="640" y="582" width="45" height="27" rx="5" fill="#dfe9ef"/><text x="662" y="602" text-anchor="middle" class="small">2</text><rect x="695" y="582" width="45" height="27" rx="5" fill="#ccdce6"/><text x="717" y="602" text-anchor="middle" class="small">3</text><rect x="750" y="582" width="45" height="27" rx="5" fill="#b5cfdc"/><text x="772" y="602" text-anchor="middle" class="small">4</text><rect x="805" y="582" width="45" height="27" rx="5" fill="#ccdce6"/><text x="827" y="602" text-anchor="middle" class="small">3</text><text x="930" y="112" class="small">Шкала 0–5</text><text x="930" y="142" class="small">Итог учитывает веса</text></svg>